<svg width="24" height="24" viewBox="0 0 24 24" fill="none" xmlns="http://www.w3.org/2000/svg">

    <path id='linkedIn' fill-rule="evenodd" clip-rule="evenodd" d="M5 3H19C20.1046 3 21 3.89543 21 5V19C21 20.1046 20.1046 21 19 21H5C3.89543 21 3 20.1046 3 19V5C3 3.89543 3.89543 3 5 3ZM8 18C8.27614 18 8.5 17.7761 8.5 17.5V10.5C8.5 10.2239 8.27614 10 8 10H6.5C6.22386 10 6 10.2239 6 10.5V17.5C6 17.7761 6.22386 18 6.5 18H8ZM7.25 9C6.42157 9 5.75 8.32843 5.75 7.5C5.75 6.67157 6.42157 6 7.25 6C8.07843 6 8.75 6.67157 8.75 7.5C8.75 8.32843 8.07843 9 7.25 9ZM17.5 18C17.7761 18 18 17.7761 18 17.5V12.9C18.0325 11.3108 16.8576 9.95452 15.28 9.76C14.177 9.65925 13.1083 10.1744 12.5 11.1V10.5C12.5 10.2239 12.2761 10 12 10H10.5C10.2239 10 10 10.2239 10 10.5V17.5C10 17.7761 10.2239 18 10.5 18H12C12.2761 18 12.5 17.7761 12.5 17.5V13.75C12.5 12.9216 13.1716 12.25 14 12.25C14.8284 12.25 15.5 12.9216 15.5 13.75V17.5C15.5 17.7761 15.7239 18 16 18H17.5Z" fill="black"/>

    <path id='x' fill-rule="nonzero"  d="M403.229 0h78.506L310.219 196.04 512 462.799H354.002L230.261 301.007 88.669 462.799h-78.56l183.455-209.683L0 0h161.999l111.856 147.88L403.229 0zm-27.556 415.805h43.505L138.363 44.527h-46.68l283.99 371.278z" fill="black"/>

    <path id='facebook' d="M16.5 6H13.5C12.9477 6 12.5 6.44772 12.5 7V10H16.5C16.6137 9.99748 16.7216 10.0504 16.7892 10.1419C16.8568 10.2334 16.8758 10.352 16.84 10.46L16.1 12.66C16.0318 12.8619 15.8431 12.9984 15.63 13H12.5V20.5C12.5 20.7761 12.2761 21 12 21H9.5C9.22386 21 9 20.7761 9 20.5V13H7.5C7.22386 13 7 12.7761 7 12.5V10.5C7 10.2239 7.22386 10 7.5 10H9V7C9 4.79086 10.7909 3 13 3H16.5C16.7761 3 17 3.22386 17 3.5V5.5C17 5.77614 16.7761 6 16.5 6Z" fill="black"/>

    <g id='react'>
        <path fill="black" d="M19.314 15.987c0 1.321-1.071 2.392-2.392 2.392s-2.392-1.071-2.392-2.392c0-1.321 1.071-2.392 2.392-2.392s2.392 1.071 2.392 2.392z"></path>
        <path fill="black" d="M16.922 24.783c1.878 1.826 3.729 2.906 5.221 2.906 0.489 0 0.952-0.103 1.337-0.334 1.337-0.772 1.826-2.701 1.363-5.453-0.077-0.489-0.18-0.977-0.309-1.492 0.514-0.154 0.977-0.309 1.44-0.463 2.598-1.003 4.038-2.392 4.038-3.909 0-1.543-1.44-2.932-4.038-3.909-0.463-0.18-0.926-0.334-1.44-0.463 0.129-0.514 0.232-1.003 0.309-1.492 0.437-2.803-0.051-4.758-1.389-5.53-0.386-0.231-0.849-0.334-1.337-0.334-1.466 0-3.344 1.080-5.221 2.906-1.852-1.826-3.704-2.906-5.195-2.906-0.489 0-0.952 0.103-1.337 0.334-1.337 0.772-1.826 2.701-1.363 5.453 0.077 0.489 0.18 0.977 0.309 1.492-0.514 0.154-0.977 0.309-1.44 0.463-2.598 1.003-4.038 2.392-4.038 3.909 0 1.543 1.44 2.932 4.038 3.909 0.463 0.18 0.926 0.334 1.44 0.463-0.129 0.514-0.232 1.003-0.309 1.492-0.437 2.752 0.051 4.707 1.363 5.453 0.386 0.232 0.849 0.334 1.337 0.334 1.492 0.051 3.344-1.029 5.221-2.829v0zM15.481 21.311c0.463 0.026 0.952 0.026 1.44 0.026s0.977 0 1.44-0.026c-0.463 0.617-0.952 1.183-1.44 1.723-0.489-0.54-0.977-1.106-1.44-1.723zM12.292 18.662c0.257 0.437 0.489 0.849 0.772 1.26-0.797-0.103-1.543-0.232-2.263-0.386 0.232-0.694 0.489-1.415 0.797-2.135 0.206 0.411 0.437 0.849 0.694 1.26zM10.8 12.463c0.72-0.154 1.466-0.283 2.263-0.386-0.257 0.412-0.514 0.823-0.772 1.26s-0.489 0.849-0.694 1.286c-0.334-0.746-0.592-1.466-0.797-2.161zM12.215 15.987c0.334-0.694 0.694-1.389 1.106-2.083 0.386-0.669 0.823-1.337 1.26-2.006 0.772-0.051 1.543-0.077 2.341-0.077 0.823 0 1.595 0.026 2.341 0.077 0.463 0.669 0.874 1.337 1.26 2.006 0.412 0.694 0.772 1.389 1.106 2.083-0.334 0.694-0.694 1.389-1.106 2.083-0.386 0.669-0.823 1.337-1.26 2.006-0.772 0.051-1.543 0.077-2.341 0.077-0.823 0-1.595-0.026-2.341-0.077-0.463-0.669-0.874-1.337-1.26-2.006-0.412-0.695-0.772-1.389-1.106-2.083v0zM22.272 14.598l-0.694-1.286c-0.257-0.437-0.489-0.849-0.772-1.26 0.797 0.103 1.543 0.232 2.263 0.386-0.231 0.72-0.489 1.44-0.797 2.161v0zM22.272 17.376c0.309 0.72 0.566 1.44 0.797 2.135-0.72 0.154-1.466 0.283-2.263 0.386 0.257-0.412 0.514-0.823 0.772-1.26 0.232-0.386 0.463-0.823 0.694-1.26v0zM22.863 26.301c-0.206 0.129-0.463 0.18-0.746 0.18-1.26 0-2.829-1.029-4.372-2.572 0.746-0.797 1.466-1.698 2.186-2.701 1.209-0.103 2.366-0.283 3.447-0.54 0.129 0.463 0.206 0.926 0.283 1.389 0.36 2.186 0.077 3.755-0.797 4.244zM24.201 12.746c2.881 0.823 4.604 2.083 4.604 3.241 0 1.003-1.183 2.006-3.266 2.804-0.412 0.154-0.874 0.309-1.337 0.437-0.334-1.055-0.746-2.135-1.26-3.241 0.514-1.106 0.952-2.186 1.26-3.241v0zM22.143 5.493c0.283 0 0.514 0.051 0.746 0.18 0.849 0.489 1.157 2.032 0.797 4.244-0.077 0.437-0.18 0.9-0.283 1.389-1.080-0.232-2.238-0.412-3.447-0.54-0.694-1.003-1.44-1.903-2.186-2.701 1.543-1.518 3.112-2.572 4.372-2.572zM18.362 10.663c-0.463-0.026-0.952-0.026-1.44-0.026s-0.977 0-1.44 0.026c0.463-0.617 0.952-1.183 1.44-1.723 0.489 0.54 0.977 1.132 1.44 1.723v0zM10.98 5.673c0.206-0.129 0.463-0.18 0.746-0.18 1.26 0 2.829 1.029 4.372 2.572-0.746 0.797-1.466 1.697-2.186 2.701-1.209 0.103-2.366 0.283-3.447 0.54-0.129-0.463-0.206-0.926-0.283-1.389-0.36-2.186-0.077-3.729 0.797-4.244v0zM9.643 19.228c-2.881-0.823-4.604-2.083-4.604-3.241 0-1.003 1.183-2.006 3.266-2.803 0.412-0.154 0.874-0.309 1.337-0.437 0.334 1.055 0.746 2.135 1.26 3.241-0.514 1.106-0.952 2.212-1.26 3.241zM10.183 22.057c0.077-0.437 0.18-0.9 0.283-1.389 1.080 0.232 2.238 0.412 3.447 0.54 0.694 1.003 1.44 1.903 2.186 2.701-1.543 1.517-3.112 2.572-4.372 2.572-0.283 0-0.514-0.051-0.746-0.18-0.875-0.489-1.157-2.058-0.797-4.244z"></path>
    </g>

    <path id='css' display="inline" d="M483.111,0.501l-42.59,461.314l-184.524,49.684L71.47,461.815L28.889,0.501H483.111z M397.29,94.302
	H255.831H111.866l6.885,55.708h137.08h7.7l-7.7,3.205l-132.07,55.006l4.38,54.453l127.69,0.414l68.438,0.217l-4.381,72.606
	l-64.058,18.035v-0.057l-0.525,0.146l-61.864-15.617l-3.754-45.07h-0.205H132.1h-0.202l7.511,87.007l116.423,34.429v-0.062
	l0.21,0.062l115.799-33.802l15.021-172.761h-131.03h-0.323l0.323-0.14l135.83-58.071L397.29,94.302z" fill="black">

    <path id='github' d="M94,7399 C99.523,7399 104,7403.59 104,7409.253 C104,7413.782 101.138,7417.624 97.167,7418.981 C96.66,7419.082 96.48,7418.762 96.48,7418.489 C96.48,7418.151 96.492,7417.047 96.492,7415.675 C96.492,7414.719 96.172,7414.095 95.813,7413.777 C98.04,7413.523 100.38,7412.656 100.38,7408.718 C100.38,7407.598 99.992,7406.684 99.35,7405.966 C99.454,7405.707 99.797,7404.664 99.252,7403.252 C99.252,7403.252 98.414,7402.977 96.505,7404.303 C95.706,7404.076 94.85,7403.962 94,7403.958 C93.15,7403.962 92.295,7404.076 91.497,7404.303 C89.586,7402.977 88.746,7403.252 88.746,7403.252 C88.203,7404.664 88.546,7405.707 88.649,7405.966 C88.01,7406.684 87.619,7407.598 87.619,7408.718 C87.619,7412.646 89.954,7413.526 92.175,7413.785 C91.889,7414.041 91.63,7414.493 91.54,7415.156 C90.97,7415.418 89.522,7415.871 88.63,7414.304 C88.63,7414.304 88.101,7413.319 87.097,7413.247 C87.097,7413.247 86.122,7413.234 87.029,7413.87 C87.029,7413.87 87.684,7414.185 88.139,7415.37 C88.139,7415.37 88.726,7417.2 91.508,7416.58 C91.513,7417.437 91.522,7418.245 91.522,7418.489 C91.522,7418.76 91.338,7419.077 90.839,7418.982 C86.865,7417.627 84,7413.783 84,7409.253 C84,7403.59 88.478,7399 94,7399" fill="black">

    <path id='html' display="inline" d="M30.713,0.501L71.717,460.42l184.006,51.078l184.515-51.15L481.287,0.501H30.713z M395.754,109.646
		l-2.567,28.596l-1.128,12.681h-0.187H256h-0.197h-79.599l5.155,57.761h74.444H256h115.723h15.201l-1.377,15.146l-13.255,148.506
		l-0.849,9.523L256,413.854v0.012l-0.259,0.072l-115.547-32.078l-7.903-88.566h26.098h30.526l4.016,44.986l62.82,16.965l0.052-0.014
		v-0.006l62.916-16.977l6.542-73.158H256h-0.197H129.771l-13.863-155.444l-1.351-15.131h141.247H256h141.104L395.754,109.646z" fill="black">

    <path id='instagram' fill-rule="evenodd" clip-rule="evenodd" d="M16 3H8C5.23858 3 3 5.23858 3 8V16C3 18.7614 5.23858 21 8 21H16C18.7614 21 21 18.7614 21 16V8C21 5.23858 18.7614 3 16 3ZM19.25 16C19.2445 17.7926 17.7926 19.2445 16 19.25H8C6.20735 19.2445 4.75549 17.7926 4.75 16V8C4.75549 6.20735 6.20735 4.75549 8 4.75H16C17.7926 4.75549 19.2445 6.20735 19.25 8V16ZM16.75 8.25C17.3023 8.25 17.75 7.80228 17.75 7.25C17.75 6.69772 17.3023 6.25 16.75 6.25C16.1977 6.25 15.75 6.69772 15.75 7.25C15.75 7.80228 16.1977 8.25 16.75 8.25ZM12 7.5C9.51472 7.5 7.5 9.51472 7.5 12C7.5 14.4853 9.51472 16.5 12 16.5C14.4853 16.5 16.5 14.4853 16.5 12C16.5027 10.8057 16.0294 9.65957 15.1849 8.81508C14.3404 7.97059 13.1943 7.49734 12 7.5ZM9.25 12C9.25 13.5188 10.4812 14.75 12 14.75C13.5188 14.75 14.75 13.5188 14.75 12C14.75 10.4812 13.5188 9.25 12 9.25C10.4812 9.25 9.25 10.4812 9.25 12Z" fill="black"/>

    <path id='js' display="inline" fill-rule="evenodd" clip-rule="evenodd" d="M1.008,0.5C0.438,0.583,0.48,1.27,0.521,1.958
		c0,169.668,0,339.31,0,508.974c169.364,1.135,340.808,0.162,510.979,0.486c0-170.309,0-340.61,0-510.918
		C341.342,0.5,171.167,0.5,1.008,0.5z M259.893,452.167c-11.822,11.919-30.478,18.938-53.429,18.938
		c-37.643,0-58.543-18.34-71.884-43.711c12.842-8.2,25.966-16.122,39.344-23.795c5.456,15.262,23.886,32.42,44.683,21.857
		c13.183-6.699,11.661-27.01,11.661-49.054c0-45.773,0-98.578,0-139.872c-0.042-0.688-0.083-1.375,0.482-1.458
		c15.707,0,31.413,0,47.116,0c0,36.788,0,78.402,0,117.529C277.866,395.199,280.91,430.988,259.893,452.167z M470.696,409.917
		c-2.674,39.884-35.243,61.063-79.17,61.188c-43.062,0.124-70.624-19.013-87.433-48.567c12.085-8.317,25.778-15.017,38.375-22.822
		c10.08,15.761,27.537,30.91,53.429,28.652c16.131-1.406,34.856-14.555,24.285-34.482c-5.127-9.66-17.516-14.567-28.656-19.425
		c-35.352-15.424-76.828-29.571-72.861-84.992c1.327-18.514,9.852-31.525,20.889-40.796c11.311-9.5,26.46-15.867,46.629-16.511
		c36.629-1.173,56.723,15.12,70.429,37.884c-11.664,8.891-24.514,16.608-37.401,24.281c-4.229-12.995-24.644-25.658-41.772-17.969
		c-7.789,3.493-14.788,13.761-10.684,26.224c3.66,11.115,18.589,17.199,30.599,22.344
		C433.706,340.486,474.331,355.693,470.696,409.917z" fill="black">

    <path id='ts' fill-rule="evenodd" clip-rule="evenodd" d="M20 5H5V20H20V5ZM11.0769 18H9.82349V13.0444H8.02637V12.011H12.874V13.0444H11.0769V18ZM18.2893 16.2153C18.2893 17.4023 17.3679 18.1536 15.8738 18.1536C14.4419 18.1536 13.5371 17.4688 13.4666 16.4062L13.4624 16.3398H14.6702L14.6743 16.3813C14.72 16.8296 15.2056 17.1326 15.907 17.1326C16.5752 17.1326 17.0359 16.813 17.0359 16.3523V16.3481C17.0359 15.9539 16.7412 15.7339 15.9983 15.5803L15.3674 15.4517C14.1223 15.1985 13.5869 14.6174 13.5869 13.7085V13.7043C13.5869 12.592 14.5415 11.8574 15.8696 11.8574C17.2683 11.8574 18.0901 12.5962 18.1689 13.5964L18.1731 13.6504H16.9944L16.9861 13.6006C16.9155 13.1731 16.5005 12.8743 15.8696 12.8743C15.2512 12.8784 14.8403 13.1606 14.8403 13.6089V13.613C14.8403 14.0032 15.1309 14.2356 15.8364 14.3809L16.4714 14.5095C17.7373 14.771 18.2893 15.2773 18.2893 16.2112V16.2153Z" fill="black"/>
</svg>