<svg width="100" height="100" viewBox="0 0 100 100" fill="none" xmlns="http://www.w3.org/2000/svg">

    <g id="html">
        <path display="inline"  d="M30.713,0.501L71.717,460.42l184.006,51.078l184.515-51.15L481.287,0.501H30.713z M395.754,109.646
            l-2.567,28.596l-1.128,12.681h-0.187H256h-0.197h-79.599l5.155,57.761h74.444H256h115.723h15.201l-1.377,15.146l-13.255,148.506
            l-0.849,9.523L256,413.854v0.012l-0.259,0.072l-115.547-32.078l-7.903-88.566h26.098h30.526l4.016,44.986l62.82,16.965l0.052-0.014
            v-0.006l62.916-16.977l6.542-73.158H256h-0.197H129.771l-13.863-155.444l-1.351-15.131h141.247H256h141.104L395.754,109.646z">
        </path>
    </g>

    <g id="css">
        <path display="inline" d="M483.111,0.501l-42.59,461.314l-184.524,49.684L71.47,461.815L28.889,0.501H483.111z M397.29,94.302
                H255.831H111.866l6.885,55.708h137.08h7.7l-7.7,3.205l-132.07,55.006l4.38,54.453l127.69,0.414l68.438,0.217l-4.381,72.606
                l-64.058,18.035v-0.057l-0.525,0.146l-61.864-15.617l-3.754-45.07h-0.205H132.1h-0.202l7.511,87.007l116.423,34.429v-0.062
                l0.21,0.062l115.799-33.802l15.021-172.761h-131.03h-0.323l0.323-0.14l135.83-58.071L397.29,94.302z">
        </path>
    </g>

    <g id="js">
        <path display="inline" clip-rule="evenodd" d="M1.008,0.5C0.438,0.583,0.48,1.27,0.521,1.958
            c0,169.668,0,339.31,0,508.974c169.364,1.135,340.808,0.162,510.979,0.486c0-170.309,0-340.61,0-510.918
            C341.342,0.5,171.167,0.5,1.008,0.5z M259.893,452.167c-11.822,11.919-30.478,18.938-53.429,18.938
            c-37.643,0-58.543-18.34-71.884-43.711c12.842-8.2,25.966-16.122,39.344-23.795c5.456,15.262,23.886,32.42,44.683,21.857
            c13.183-6.699,11.661-27.01,11.661-49.054c0-45.773,0-98.578,0-139.872c-0.042-0.688-0.083-1.375,0.482-1.458
            c15.707,0,31.413,0,47.116,0c0,36.788,0,78.402,0,117.529C277.866,395.199,280.91,430.988,259.893,452.167z M470.696,409.917
            c-2.674,39.884-35.243,61.063-79.17,61.188c-43.062,0.124-70.624-19.013-87.433-48.567c12.085-8.317,25.778-15.017,38.375-22.822
            c10.08,15.761,27.537,30.91,53.429,28.652c16.131-1.406,34.856-14.555,24.285-34.482c-5.127-9.66-17.516-14.567-28.656-19.425
            c-35.352-15.424-76.828-29.571-72.861-84.992c1.327-18.514,9.852-31.525,20.889-40.796c11.311-9.5,26.46-15.867,46.629-16.511
            c36.629-1.173,56.723,15.12,70.429,37.884c-11.664,8.891-24.514,16.608-37.401,24.281c-4.229-12.995-24.644-25.658-41.772-17.969
            c-7.789,3.493-14.788,13.761-10.684,26.224c3.66,11.115,18.589,17.199,30.599,22.344
            C433.706,340.486,474.331,355.693,470.696,409.917z">
        </path>
    </g>

    <g id="ts">
        <path clip-rule="evenodd" d="M20 5H5V20H20V5ZM11.0769 18H9.82349V13.0444H8.02637V12.011H12.874V13.0444H11.0769V18ZM18.2893 16.2153C18.2893 17.4023 17.3679 18.1536 15.8738 18.1536C14.4419 18.1536 13.5371 17.4688 13.4666 16.4062L13.4624 16.3398H14.6702L14.6743 16.3813C14.72 16.8296 15.2056 17.1326 15.907 17.1326C16.5752 17.1326 17.0359 16.813 17.0359 16.3523V16.3481C17.0359 15.9539 16.7412 15.7339 15.9983 15.5803L15.3674 15.4517C14.1223 15.1985 13.5869 14.6174 13.5869 13.7085V13.7043C13.5869 12.592 14.5415 11.8574 15.8696 11.8574C17.2683 11.8574 18.0901 12.5962 18.1689 13.5964L18.1731 13.6504H16.9944L16.9861 13.6006C16.9155 13.1731 16.5005 12.8743 15.8696 12.8743C15.2512 12.8784 14.8403 13.1606 14.8403 13.6089V13.613C14.8403 14.0032 15.1309 14.2356 15.8364 14.3809L16.4714 14.5095C17.7373 14.771 18.2893 15.2773 18.2893 16.2112V16.2153Z"/>
    </g>

    <g id="react">
        <path d="M19.314 15.987c0 1.321-1.071 2.392-2.392 2.392s-2.392-1.071-2.392-2.392c0-1.321 1.071-2.392 2.392-2.392s2.392 1.071 2.392 2.392z"></path>
        <path d="M16.922 24.783c1.878 1.826 3.729 2.906 5.221 2.906 0.489 0 0.952-0.103 1.337-0.334 1.337-0.772 1.826-2.701 1.363-5.453-0.077-0.489-0.18-0.977-0.309-1.492 0.514-0.154 0.977-0.309 1.44-0.463 2.598-1.003 4.038-2.392 4.038-3.909 0-1.543-1.44-2.932-4.038-3.909-0.463-0.18-0.926-0.334-1.44-0.463 0.129-0.514 0.232-1.003 0.309-1.492 0.437-2.803-0.051-4.758-1.389-5.53-0.386-0.231-0.849-0.334-1.337-0.334-1.466 0-3.344 1.080-5.221 2.906-1.852-1.826-3.704-2.906-5.195-2.906-0.489 0-0.952 0.103-1.337 0.334-1.337 0.772-1.826 2.701-1.363 5.453 0.077 0.489 0.18 0.977 0.309 1.492-0.514 0.154-0.977 0.309-1.44 0.463-2.598 1.003-4.038 2.392-4.038 3.909 0 1.543 1.44 2.932 4.038 3.909 0.463 0.18 0.926 0.334 1.44 0.463-0.129 0.514-0.232 1.003-0.309 1.492-0.437 2.752 0.051 4.707 1.363 5.453 0.386 0.232 0.849 0.334 1.337 0.334 1.492 0.051 3.344-1.029 5.221-2.829v0zM15.481 21.311c0.463 0.026 0.952 0.026 1.44 0.026s0.977 0 1.44-0.026c-0.463 0.617-0.952 1.183-1.44 1.723-0.489-0.54-0.977-1.106-1.44-1.723zM12.292 18.662c0.257 0.437 0.489 0.849 0.772 1.26-0.797-0.103-1.543-0.232-2.263-0.386 0.232-0.694 0.489-1.415 0.797-2.135 0.206 0.411 0.437 0.849 0.694 1.26zM10.8 12.463c0.72-0.154 1.466-0.283 2.263-0.386-0.257 0.412-0.514 0.823-0.772 1.26s-0.489 0.849-0.694 1.286c-0.334-0.746-0.592-1.466-0.797-2.161zM12.215 15.987c0.334-0.694 0.694-1.389 1.106-2.083 0.386-0.669 0.823-1.337 1.26-2.006 0.772-0.051 1.543-0.077 2.341-0.077 0.823 0 1.595 0.026 2.341 0.077 0.463 0.669 0.874 1.337 1.26 2.006 0.412 0.694 0.772 1.389 1.106 2.083-0.334 0.694-0.694 1.389-1.106 2.083-0.386 0.669-0.823 1.337-1.26 2.006-0.772 0.051-1.543 0.077-2.341 0.077-0.823 0-1.595-0.026-2.341-0.077-0.463-0.669-0.874-1.337-1.26-2.006-0.412-0.695-0.772-1.389-1.106-2.083v0zM22.272 14.598l-0.694-1.286c-0.257-0.437-0.489-0.849-0.772-1.26 0.797 0.103 1.543 0.232 2.263 0.386-0.231 0.72-0.489 1.44-0.797 2.161v0zM22.272 17.376c0.309 0.72 0.566 1.44 0.797 2.135-0.72 0.154-1.466 0.283-2.263 0.386 0.257-0.412 0.514-0.823 0.772-1.26 0.232-0.386 0.463-0.823 0.694-1.26v0zM22.863 26.301c-0.206 0.129-0.463 0.18-0.746 0.18-1.26 0-2.829-1.029-4.372-2.572 0.746-0.797 1.466-1.698 2.186-2.701 1.209-0.103 2.366-0.283 3.447-0.54 0.129 0.463 0.206 0.926 0.283 1.389 0.36 2.186 0.077 3.755-0.797 4.244zM24.201 12.746c2.881 0.823 4.604 2.083 4.604 3.241 0 1.003-1.183 2.006-3.266 2.804-0.412 0.154-0.874 0.309-1.337 0.437-0.334-1.055-0.746-2.135-1.26-3.241 0.514-1.106 0.952-2.186 1.26-3.241v0zM22.143 5.493c0.283 0 0.514 0.051 0.746 0.18 0.849 0.489 1.157 2.032 0.797 4.244-0.077 0.437-0.18 0.9-0.283 1.389-1.080-0.232-2.238-0.412-3.447-0.54-0.694-1.003-1.44-1.903-2.186-2.701 1.543-1.518 3.112-2.572 4.372-2.572zM18.362 10.663c-0.463-0.026-0.952-0.026-1.44-0.026s-0.977 0-1.44 0.026c0.463-0.617 0.952-1.183 1.44-1.723 0.489 0.54 0.977 1.132 1.44 1.723v0zM10.98 5.673c0.206-0.129 0.463-0.18 0.746-0.18 1.26 0 2.829 1.029 4.372 2.572-0.746 0.797-1.466 1.697-2.186 2.701-1.209 0.103-2.366 0.283-3.447 0.54-0.129-0.463-0.206-0.926-0.283-1.389-0.36-2.186-0.077-3.729 0.797-4.244v0zM9.643 19.228c-2.881-0.823-4.604-2.083-4.604-3.241 0-1.003 1.183-2.006 3.266-2.803 0.412-0.154 0.874-0.309 1.337-0.437 0.334 1.055 0.746 2.135 1.26 3.241-0.514 1.106-0.952 2.212-1.26 3.241zM10.183 22.057c0.077-0.437 0.18-0.9 0.283-1.389 1.080 0.232 2.238 0.412 3.447 0.54 0.694 1.003 1.44 1.903 2.186 2.701-1.543 1.517-3.112 2.572-4.372 2.572-0.283 0-0.514-0.051-0.746-0.18-0.875-0.489-1.157-2.058-0.797-4.244z"></path>
    </g>

    <g id="github">
        <path d="M24,1.9a21.6,21.6,0,0,0-6.8,42.2c1,.2,1.8-.9,1.8-1.8V39.4c-6,1.3-7.9-2.9-7.9-2.9a6.5,6.5,0,0,0-2.2-3.2C6.9,31.9,9,32,9,32a4.3,4.3,0,0,1,3.3,2c1.7,2.9,5.5,2.6,6.7,2.1a5.4,5.4,0,0,1,.5-2.9C12.7,32,9,28,9,22.6A10.7,10.7,0,0,1,11.9,15a6.2,6.2,0,0,1,.3-6.4,8.9,8.9,0,0,1,6.4,2.9,15.1,15.1,0,0,1,5.4-.8,17.1,17.1,0,0,1,5.4.7,9,9,0,0,1,6.4-2.8,6.5,6.5,0,0,1,.4,6.4A10.7,10.7,0,0,1,39,22.6C39,28,35.3,32,28.5,33.2a5.4,5.4,0,0,1,.5,2.9v6.2a1.8,1.8,0,0,0,1.9,1.8A21.7,21.7,0,0,0,24,1.9Z"/>
    </g>

    <g id="scv">
        <path d="M16.214 6.762l-.075.391c-.116.741-.074.953.244 1.228l.307.254-.318 1.418c-.19.846-.423 1.555-.571 1.788-.127.201-.275.497-.307.656-.053.19-.233.381-.508.55-.243.138-.72.508-1.058.805-.27.243-.456.392-.557.456l-.33.261c-.106.17-.166.307-.189.411-.023.107-.01.178.024.23.033.05.09.085.168.107a.954.954 0 00.282.023 3 3 0 00.632-.112c.07-.019.125-.037.173-.053.074-.091.245-.263.548-.562.804-.793 1.111-1.227.794-1.11-.117.042-.064-.064.137-.276.424-.413.667-1.037 1.175-2.994.402-1.545.402-1.567.698-1.567.139 0 .532.024.532.024V6.762h-.902zm3.839 3.165c-.064 0-.17.096-.233.202-.116.19.021.306 1.767 1.396 1.037.657 1.873 1.217 1.852 1.26-.021.031-.868.582-1.883 1.217-1.842 1.142-1.852 1.153-1.683 1.386.212.275 0 .37 2.391-1.122L24 13.155v-.836l-1.937-1.196c-1.047-.656-1.957-1.185-2.01-1.196zm-16.085.117c-.053 0-.963.54-2.01 1.185L0 12.425v.836l1.947 1.217c1.08.666 1.99 1.217 2.032 1.217.042 0 .127-.096.212-.212.127-.201.02-.286-1.768-1.418C.72 12.996.54 12.848.71 12.732c.106-.074.91-.572 1.778-1.111 1.979-1.217 1.873-1.133 1.714-1.387-.063-.105-.17-.2-.233-.19zm8.684.023c-.292-.002-.92.443-2.8 1.978-.081.193-.088.326-.051.412.024.059.068.1.129.13.06.03.138.048.224.055.171.015.373-.012.536-.044l.11-.025a.386.386 0 01.144-.118c.116-.064.603-.508 1.09-.984.857-.868 1.058-1.26.709-1.387a.24.24 0 00-.09-.017zm2.196.603c-.257.007-.72.305-1.513.938-.398.323-.65.497-.785.533l-.524.414c-.197.36-.226.583-.174.706a.25.25 0 00.138.134.644.644 0 00.24.045 2.18 2.18 0 00.58-.085 3.466 3.466 0 00.291-.092l.029-.012.053-.028c.1-.129.33-.372.618-.652.91-.878 1.375-1.502 1.28-1.735-.043-.113-.117-.17-.233-.166zm-2.424 1.08c-.074.008-.24.136-.539.398-.432.382-.903.602-1.066.504a3.97 3.97 0 01-.114.024c-.166.033-.373.06-.558.045a.708.708 0 01-.252-.063.337.337 0 01-.168-.17c-.037-.09-.037-.202.005-.345l-.65.534-1.471 1.217V15.867l4.82-3.797a.41.41 0 01.016-.123c.037-.134.035-.202-.023-.196zm2.074.639c-.073 0-.195.103-.39.31-.265.283-.682.557-.903.613l-.034.018a2.191 2.191 0 01-.11.042c-.06.02-.138.044-.228.068-.18.049-.404.094-.604.089a.732.732 0 01-.275-.054.344.344 0 01-.184-.18c-.058-.139-.035-.334.092-.611L7.61 16.033v1.205h1.868l3.962-3.112c.103-.114.258-.27.467-.465.56-.519.687-.698.687-.963 0-.206-.023-.31-.096-.31zm.943 1.95l-.339.338c-.19.18-.529.402-.761.497l-.046.02-.003.005-.01.01c-.009.007-.013.008-.02.011a3.432 3.432 0 01-.282.093 3.058 3.058 0 01-.65.115 1.035 1.035 0 01-.31-.027.364.364 0 01-.218-.144c-.048-.074-.062-.173-.035-.295a1.11 1.11 0 01.095-.25l-3.197 2.526h4.252l.508-.582c.698-.814 1.016-1.396 1.016-1.894z"/>
    </g>

    <g id="x">
        <path  d="M403.229 0h78.506L310.219 196.04 512 462.799H354.002L230.261 301.007 88.669 462.799h-78.56l183.455-209.683L0 0h161.999l111.856 147.88L403.229 0zm-27.556 415.805h43.505L138.363 44.527h-46.68l283.99 371.278z"/>
    </g>

    <g id="in">
        <path clip-rule="evenodd" d="M2 0H16C17.1046 0 18 0.89543 18 2V16C18 17.1046 17.1046 18 16 18H2C0.89543 18 0 17.1046 0 16V2C0 0.89543 0.89543 0 2 0ZM5 15C5.27614 15 5.5 14.7761 5.5 14.5V7.5C5.5 7.2239 5.27614 7 5 7H3.5C3.22386 7 3 7.2239 3 7.5V14.5C3 14.7761 3.22386 15 3.5 15H5ZM4.25 6C3.42157 6 2.75 5.32843 2.75 4.5C2.75 3.67157 3.42157 3 4.25 3C5.07843 3 5.75 3.67157 5.75 4.5C5.75 5.32843 5.07843 6 4.25 6ZM14.5 15C14.7761 15 15 14.7761 15 14.5V9.9C15.0325 8.3108 13.8576 6.95452 12.28 6.76C11.177 6.65925 10.1083 7.1744 9.5 8.1V7.5C9.5 7.2239 9.2761 7 9 7H7.5C7.2239 7 7 7.2239 7 7.5V14.5C7 14.7761 7.2239 15 7.5 15H9C9.2761 15 9.5 14.7761 9.5 14.5V10.75C9.5 9.9216 10.1716 9.25 11 9.25C11.8284 9.25 12.5 9.9216 12.5 10.75V14.5C12.5 14.7761 12.7239 15 13 15H14.5Z"/>
    </g>

    <g id="instagram">
        <path clip-rule="evenodd" d="M13 0H5C2.23858 0 0 2.23858 0 5V13C0 15.7614 2.23858 18 5 18H13C15.7614 18 18 15.7614 18 13V5C18 2.23858 15.7614 0 13 0ZM16.25 13C16.2445 14.7926 14.7926 16.2445 13 16.25H5C3.20735 16.2445 1.75549 14.7926 1.75 13V5C1.75549 3.20735 3.20735 1.75549 5 1.75H13C14.7926 1.75549 16.2445 3.20735 16.25 5V13ZM13.75 5.25C14.3023 5.25 14.75 4.80228 14.75 4.25C14.75 3.69772 14.3023 3.25 13.75 3.25C13.1977 3.25 12.75 3.69772 12.75 4.25C12.75 4.80228 13.1977 5.25 13.75 5.25ZM9 4.5C6.51472 4.5 4.5 6.51472 4.5 9C4.5 11.4853 6.51472 13.5 9 13.5C11.4853 13.5 13.5 11.4853 13.5 9C13.5027 7.8057 13.0294 6.65957 12.1849 5.81508C11.3404 4.97059 10.1943 4.49734 9 4.5ZM6.25 9C6.25 10.5188 7.4812 11.75 9 11.75C10.5188 11.75 11.75 10.5188 11.75 9C11.75 7.4812 10.5188 6.25 9 6.25C7.4812 6.25 6.25 7.4812 6.25 9Z"/>
    </g>

    <g id="facebook">
        <path d="M9.5 3H6.5C5.9477 3 5.5 3.44772 5.5 4V7H9.5C9.6137 6.99748 9.7216 7.0504 9.7892 7.1419C9.8568 7.2334 9.8758 7.352 9.84 7.46L9.1 9.66C9.0318 9.8619 8.8431 9.9984 8.63 10H5.5V17.5C5.5 17.7761 5.2761 18 5 18H2.5C2.22386 18 2 17.7761 2 17.5V10H0.5C0.22386 10 0 9.7761 0 9.5V7.5C0 7.2239 0.22386 7 0.5 7H2V4C2 1.79086 3.7909 0 6 0H9.5C9.7761 0 10 0.22386 10 0.5V2.5C10 2.77614 9.7761 3 9.5 3Z" />
    </g>

    <g id="btn">
        <path fill-rule="evenodd" clip-rule="evenodd" d="M5.79368 4.85072C5.9743 5.03134 5.9743 5.32413 5.79368 5.50474L1.0784 10.22C0.897785 10.4006 0.604995 10.4006 0.424376 10.22L0.206326 10.002C0.025707 9.82137 0.025707 9.52854 0.206326 9.34792L4.37654 5.17773L0.206326 1.00752C0.0257066 0.8269 0.0257066 0.53411 0.206326 0.353492L0.424376 0.135442C0.604995 -0.0451775 0.897784 -0.0451775 1.0784 0.135442L5.79368 4.85072Z"/>
    </g>
</svg>
