<svg width="50" height="50" viewBox="0 0 50 50" xmlns="http://www.w3.org/2000/svg">

    <g id="html">
        <path d="M3.125 0H46.875L42.8958 44.9229L24.9521 50L7.11042 44.9208L3.125 0ZM17.7729 20.3125L17.2896 14.65L38.2458 14.6562L38.725 9.19375L11.275 9.1875L12.7292 25.875H31.7417L31.0625 33.0125L25 34.6875L18.8437 33L18.4521 28.6042H13.0167L13.7042 37.2937L25 40.3146L36.2062 37.3083L37.7562 20.3146L17.7729 20.3125Z"/>
    </g>

    <g id="css">
        <path fill-rule="evenodd" clip-rule="evenodd" d="M3.75 0L7.735 45.14L25 50L42.265 45.14L46.25 0H3.75ZM37.6925 14.63L24.985 20.3125L24.9525 20.325H37.245L35.8375 37.23L25.0025 40.5375L24.985 40.53V40.5375L14.09 37.1675L13.39 28.655H18.795L19.145 33.065L24.935 34.5925L24.985 34.5775V34.585L30.9775 32.82L31.3875 25.715L24.985 25.695L13.035 25.655L12.6275 20.325L24.985 14.9425L25.705 14.63H12.16L11.5125 9.18H38.22L37.6925 14.63Z"/>
    </g>

    <g id="js">
        <path fill-rule="evenodd" clip-rule="evenodd" d="M0 0H50V50H0V0ZM38.2229 41.9167C35.9042 41.9167 34.5937 40.7083 33.5875 39.0625L29.7687 41.2812C31.1479 44.0062 33.9667 46.0854 38.3312 46.0854C42.7937 46.0854 46.1167 43.7687 46.1167 39.5375C46.1167 35.6146 43.8625 33.8708 39.8708 32.1562L38.6958 31.6542C36.6792 30.7792 35.8062 30.2104 35.8062 28.8C35.8062 27.6604 36.6812 26.7875 38.0562 26.7875C39.4042 26.7875 40.2729 27.3562 41.0792 28.8L44.7375 26.4521C43.1896 23.7292 41.0437 22.6896 38.0562 22.6896C33.8604 22.6896 31.175 25.3729 31.175 28.8979C31.175 32.7208 33.425 34.5312 36.8167 35.975L37.9917 36.4792C40.1354 37.4167 41.4125 37.9875 41.4125 39.5979C41.4125 40.9437 40.1687 41.9167 38.2229 41.9167ZM20.0146 41.8854C18.4 41.8854 17.7271 40.7812 16.9896 39.4687L13.1646 41.7854C14.2729 44.1312 16.4521 46.0771 20.2125 46.0771C24.3771 46.0771 27.2292 43.8625 27.2292 38.9979V22.9562H22.5312V38.9354C22.5312 41.2833 21.5562 41.8854 20.0125 41.8854"/>
    </g>

    <g id="ts">
        <path d="M2.34375 0C1.04583 0 0 1.04583 0 2.34375V47.6562C0 48.9542 1.04583 50 2.34375 50H47.6562C48.9542 50 50 48.9542 50 47.6562V2.34375C50 1.04583 48.9542 0 47.6562 0H2.34375ZM38.5167 20.3125C39.7917 20.3125 40.9215 20.3896 41.9062 20.5437C42.8356 20.6833 43.7476 20.9207 44.6271 21.2521V26.3729C44.2047 26.0815 43.7562 25.8297 43.2875 25.6208C42.8041 25.4025 42.3047 25.2214 41.7938 25.0792C40.826 24.8107 39.8272 24.6706 38.8229 24.6625C38.1979 24.6625 37.6292 24.7222 37.1167 24.8417C36.6599 24.9394 36.2217 25.1096 35.8188 25.3458C35.466 25.5625 35.1931 25.8222 35 26.125C34.8065 26.4301 34.7052 26.7846 34.7083 27.1458C34.7083 27.5542 34.8167 27.9215 35.0333 28.2479C35.25 28.5729 35.5576 28.8812 35.9563 29.1729C36.5542 29.6104 36.8375 29.7479 37.4062 30.0271C37.9757 30.309 38.6187 30.5979 39.3354 30.8937C40.3146 31.3049 41.1937 31.741 41.9729 32.2021C42.7521 32.6646 43.4208 33.1875 43.9792 33.7708C44.5375 34.3514 44.9639 35.016 45.2583 35.7646C45.5542 36.5118 45.7028 37.3819 45.7042 38.375C45.7042 39.7444 45.4451 40.8944 44.9271 41.825C44.4247 42.7431 43.6997 43.5204 42.8187 44.0854C41.8708 44.6854 40.8208 45.1063 39.7208 45.3271C38.5403 45.5771 37.2972 45.7021 35.9917 45.7021C34.7061 45.7067 33.4228 45.5923 32.1583 45.3604C31.0641 45.1725 30.003 44.8265 29.0083 44.3333V38.8542C30.8909 40.457 33.2796 41.3425 35.7521 41.3542C36.4465 41.3542 37.0521 41.2917 37.5688 41.1667C38.0868 41.0417 38.5194 40.8681 38.8667 40.6458C39.2125 40.4208 39.4715 40.1569 39.6437 39.8542C39.8356 39.5002 39.923 39.0991 39.8957 38.6974C39.8684 38.2958 39.7275 37.9101 39.4896 37.5854C39.1807 37.1752 38.802 36.8226 38.3708 36.5437C37.8368 36.1898 37.2744 35.8804 36.6896 35.6187C35.9963 35.3023 35.2968 34.9995 34.5917 34.7104C32.6792 33.9118 31.2535 32.9361 30.3146 31.7833C29.3757 30.6306 28.9062 29.2382 28.9062 27.6062C28.9062 26.3285 29.1625 25.2299 29.675 24.3104C30.1861 23.391 30.8833 22.6347 31.7667 22.0417C32.7011 21.4255 33.7383 20.9817 34.8292 20.7312C36.0373 20.4457 37.2752 20.3051 38.5167 20.3125ZM7.03125 20.7042H26.9542V25.2167H19.8042V45.3125H14.1437V25.2167H7.03125V20.7042Z"/>
    </g>

    <g id="react">
        <path d="M50 24.3521C50 21.0396 45.8521 17.9 39.4917 15.9542C40.9604 9.47293 40.3083 4.31459 37.4333 2.66251C36.7365 2.27282 35.9482 2.07646 35.15 2.09376V4.36459C35.6187 4.36459 35.9958 4.45834 36.3125 4.63126C37.6979 5.42709 38.3 8.45209 37.8312 12.3458C37.7187 13.3042 37.5354 14.3125 37.3104 15.3417C35.1801 14.8302 33.0185 14.4592 30.8396 14.2313C29.5407 12.4407 28.1244 10.7384 26.6 9.13543C29.9229 6.04793 33.0417 4.35626 35.1625 4.35626V2.08334C32.3583 2.08334 28.6896 4.08126 24.9792 7.54584C21.2708 4.10418 17.6 2.12501 14.7979 2.12501V4.39584C16.9083 4.39584 20.0375 6.07918 23.3604 9.14584C21.9333 10.6458 20.5063 12.3458 19.15 14.2313C16.9665 14.456 14.8009 14.8305 12.6687 15.3521C12.4354 14.3326 12.2583 13.3479 12.1375 12.3979C11.6583 8.50209 12.25 5.47709 13.6271 4.67293C13.9312 4.48959 14.3292 4.40626 14.7979 4.40626V2.13543C13.9437 2.13543 13.1667 2.31876 12.4958 2.70418C9.63125 4.35626 8.98958 9.50209 10.4667 15.9646C4.12708 17.9229 0 21.05 0 24.3521C0 27.6646 4.14792 30.8042 10.5083 32.7479C9.03958 39.2313 9.69167 44.3896 12.5667 46.0396C13.2292 46.4271 14.0042 46.6104 14.8583 46.6104C17.6625 46.6104 21.3313 44.6125 25.0417 41.1479C28.75 44.5917 32.4187 46.5688 35.2229 46.5688C36.0271 46.5838 36.821 46.3869 37.525 45.9979C40.3896 44.3479 41.0312 39.2021 39.5542 32.7396C45.8729 30.7938 50 27.6542 50 24.3521ZM36.7292 17.5542C36.3334 18.9164 35.8745 20.2595 35.3542 21.5792C34.5038 19.9216 33.5686 18.3091 32.5521 16.7479C34.0021 16.9604 35.3951 17.2292 36.7312 17.5542M32.0646 28.4083C31.3014 29.7405 30.4819 31.0396 29.6083 32.3021C26.5505 32.5711 23.4751 32.5746 20.4167 32.3125C18.6628 29.8064 17.1286 27.1535 15.8312 24.3833C17.1256 21.6062 18.6533 18.9439 20.3979 16.425C23.455 16.1554 26.5297 16.1512 29.5875 16.4125C30.4347 17.6278 31.2569 18.9195 32.0542 20.2875C32.8278 21.6222 33.5347 22.9736 34.175 24.3417C33.527 25.7253 32.823 27.082 32.0646 28.4083ZM35.3542 27.0833C35.9042 28.45 36.375 29.8146 36.7604 31.1396C35.4271 31.4667 34.0187 31.7417 32.5625 31.9542C33.5735 30.378 34.5053 28.7524 35.3542 27.0833ZM25.0208 37.9583C24.0708 36.9778 23.1264 35.8903 22.1875 34.6958C23.1042 34.7375 24.0417 34.7688 24.9896 34.7688C25.9493 34.7701 26.8937 34.7458 27.8229 34.6958C26.9062 35.8896 25.9583 36.9792 25.0208 37.9583ZM17.4375 31.9542C16.0327 31.751 14.6382 31.4826 13.2583 31.15C13.6354 29.8354 14.1042 28.4792 14.6333 27.125C15.0521 27.9375 15.4917 28.7542 15.9708 29.5708C16.45 30.3861 16.9389 31.1806 17.4375 31.9542ZM24.9687 10.7458C25.9187 11.7264 26.8632 12.8139 27.8021 14.0083C26.8854 13.9667 25.9479 13.9354 25 13.9354C24.0403 13.934 23.0958 13.9583 22.1667 14.0083C23.0833 12.8146 24.0312 11.725 24.9687 10.7458ZM17.4271 16.75C16.4163 18.3227 15.4846 19.9449 14.6354 21.6104C14.1006 20.2822 13.6313 18.9285 13.2292 17.5542C14.5625 17.2375 15.9708 16.9625 17.4271 16.75ZM8.20417 29.5083C4.59583 27.9708 2.2625 25.9521 2.2625 24.3521C2.2625 22.7521 4.59583 20.7229 8.20417 19.1958C9.07917 18.8188 10.0375 18.4813 11.0271 18.1667C11.6083 20.1625 12.3729 22.2417 13.3187 24.3729C12.4248 26.3771 11.6695 28.4403 11.0583 30.5479C10.0907 30.2479 9.13814 29.9009 8.20417 29.5083ZM13.6875 44.0708C12.3021 43.2792 11.7 40.25 12.1687 36.3583C12.2812 35.4 12.4646 34.3896 12.6896 33.3604C14.6854 33.85 16.8667 34.2271 19.1604 34.4729C20.4593 36.2635 21.8756 37.9658 23.4 39.5688C20.0771 42.6563 16.9583 44.3479 14.8375 44.3479C14.4377 44.3495 14.0433 44.2552 13.6875 44.0729M37.8625 36.3083C38.3417 40.2021 37.75 43.2292 36.3729 44.0333C36.0687 44.2167 35.6708 44.2979 35.2021 44.2979C33.0917 44.2979 29.9625 42.6167 26.6396 39.5479C28.1582 37.9523 29.565 36.2538 30.85 34.4646C33.0335 34.2399 35.1991 33.8654 37.3312 33.3438C37.5687 34.3715 37.7458 35.3597 37.8625 36.3083ZM41.7854 29.5104C40.9104 29.8875 39.9521 30.225 38.9625 30.5396C38.3394 28.4215 37.5738 26.3481 36.6708 24.3333C37.6083 22.2146 38.3604 20.1458 38.9312 18.1583C39.9424 18.4736 40.8972 18.8201 41.7958 19.1979C45.4042 20.7354 47.7375 22.7542 47.7375 24.3542C47.7271 25.9542 45.3937 27.9833 41.7854 29.5104Z"/>
        <path d="M24.9896 29.0104C26.225 29.0104 27.4099 28.5196 28.2835 27.646C29.1571 26.7724 29.6479 25.5876 29.6479 24.3521C29.6479 23.1166 29.1571 21.9318 28.2835 21.0582C27.4099 20.1845 26.225 19.6938 24.9896 19.6938C23.7541 19.6938 22.5692 20.1845 21.6956 21.0582C20.822 21.9318 20.3312 23.1166 20.3312 24.3521C20.3312 25.5876 20.822 26.7724 21.6956 27.646C22.5692 28.5196 23.7541 29.0104 24.9896 29.0104Z"/>
    </g>

    <g id="githubblack">
        <path d="M38.2812 0H11.7188C5.24666 0 0 5.24666 0 11.7188V38.2812C0 44.7533 5.24666 50 11.7188 50H38.2812C44.7533 50 50 44.7533 50 38.2812V11.7188C50 5.24666 44.7533 0 38.2812 0Z"/>
        <path d="M25.0002 5.85938C14.2146 5.85938 5.46875 14.6035 5.46875 25.3908C5.46875 34.0203 11.065 41.3414 18.8256 43.924C19.8016 44.1049 20.16 43.5004 20.16 42.9846C20.16 42.5187 20.1418 40.9803 20.1334 39.3482C14.6998 40.5297 13.5533 37.0438 13.5533 37.0438C12.6646 34.7861 11.3846 34.1859 11.3846 34.1859C9.6125 32.9736 11.5182 32.9986 11.5182 32.9986C13.4795 33.1363 14.5123 35.0113 14.5123 35.0113C16.2543 37.9973 19.0814 37.134 20.1959 36.635C20.3713 35.3725 20.8773 34.5109 21.4359 34.0232C17.0979 33.5293 12.5375 31.8545 12.5375 24.3707C12.5375 22.2383 13.3004 20.4959 14.5498 19.1281C14.3469 18.6361 13.6783 16.6496 14.7389 13.9594C14.7389 13.9594 16.3791 13.4346 20.1115 15.9613C21.6695 15.5287 23.3402 15.3117 25.0002 15.3043C26.66 15.3117 28.3322 15.5287 29.893 15.9615C33.6209 13.4344 35.2588 13.9596 35.2588 13.9596C36.3219 16.6496 35.6531 18.6363 35.4502 19.1281C36.7025 20.4959 37.4604 22.2383 37.4604 24.3707C37.4604 31.8725 32.8912 33.5242 28.542 34.0076C29.2426 34.6139 29.8668 35.8023 29.8668 37.6246C29.8668 40.2379 29.8441 42.3412 29.8441 42.9846C29.8441 43.5043 30.1957 44.1133 31.1857 43.9215C38.942 41.3359 44.5312 34.0174 44.5312 25.3908C44.5312 14.6037 35.7865 5.85938 25.0002 5.85938ZM12.784 33.6822C12.741 33.7793 12.5883 33.8084 12.4492 33.7418C12.3074 33.6781 12.2279 33.5457 12.2738 33.4484C12.3158 33.3484 12.4689 33.3207 12.6102 33.3877C12.7521 33.4514 12.833 33.585 12.784 33.6822ZM13.7447 34.5395C13.6516 34.626 13.4693 34.5857 13.3459 34.4492C13.2182 34.3131 13.1941 34.1311 13.2887 34.0434C13.3846 33.957 13.5613 33.9975 13.6893 34.1336C13.817 34.2715 13.842 34.4521 13.7447 34.5395ZM14.4037 35.6363C14.284 35.7195 14.0883 35.6416 13.9674 35.4678C13.8477 35.2941 13.8477 35.0859 13.9699 35.0023C14.0912 34.9189 14.284 34.9939 14.4066 35.1664C14.526 35.343 14.526 35.5514 14.4037 35.6363ZM15.5184 36.9066C15.4113 37.0246 15.1834 36.993 15.0164 36.8318C14.8457 36.6744 14.798 36.451 14.9055 36.3328C15.0139 36.2145 15.2432 36.2479 15.4113 36.4076C15.5809 36.5646 15.6326 36.7898 15.5184 36.9066ZM16.959 37.3354C16.9117 37.4885 16.6922 37.558 16.4709 37.493C16.2502 37.426 16.1055 37.2469 16.1502 37.0922C16.1961 36.9383 16.4166 36.8658 16.6395 36.9354C16.8602 37.002 17.0049 37.1799 16.959 37.3354ZM18.5984 37.5174C18.6039 37.6783 18.4164 37.8119 18.1842 37.8148C17.9506 37.8201 17.7617 37.6896 17.7592 37.5313C17.7592 37.3686 17.9426 37.2363 18.176 37.2324C18.4084 37.2279 18.5984 37.3572 18.5984 37.5174ZM20.209 37.4557C20.2369 37.6127 20.0756 37.7742 19.8449 37.8172C19.6182 37.8586 19.4082 37.7615 19.3795 37.6057C19.3514 37.4445 19.5156 37.2832 19.742 37.2414C19.973 37.2014 20.1797 37.2959 20.209 37.4557Z" fill="black"/>
    </g>

    <g id="scv">
        <path d="M12.5383 24.0082C12.343 26.4674 14.5034 28.2787 15.9778 28.2787C17.4543 28.2099 23.2046 23.3641 23.2046 23.3641C25.9091 19.9437 25.9208 18.4228 25.9208 17.2273C25.6952 11.9497 16.08 19.9881 12.5383 24.0082ZM36.3239 21.9654C37.6291 19.2031 35.8731 16.1351 32.0536 18.8299C29.0185 20.759 25.0891 24.7275 23.2085 26.2811C22.3362 28.0429 24.5474 32.8778 28.0513 30.325C32.1929 27.316 35.2173 24.4866 36.3239 21.9654ZM39.8786 5.25527L40.7197 0H50V9.59316L46.5989 9.63379L42.5037 23.5043C42.7586 28.3996 40.2762 28.4793 39.9591 30.7255C39.1621 36.371 32.8487 40.9903 30.435 40.9903C28.8251 40.9437 27.6482 39.0985 27.2529 37.4907C31.792 32.4702 37.8959 28.5248 37.8959 28.5248C38.277 25.8845 37.4394 25.0438 40.2565 22.7939L42.9448 8.65937C40.6489 7.14326 39.5776 7.1668 39.8786 5.25527ZM21.7646 28.6635C24.1184 33.4061 27.5192 33.5297 32.792 27.4917C32.9173 28.0499 33.0545 28.6348 32.8027 30.0391C22.0766 39.6327 11.974 48.9697 8.89893 50H0V47.6133C1.44727 45.6062 13.325 35.8095 21.7646 28.6635ZM37.617 37.8461C37.1341 41.9512 33.3914 45.5434 28.3902 50H12.5402L25.9023 38.7446C28.209 43.9941 32.3061 43.2337 37.6171 37.8461M18.873 28.5283L0 44.6146V34.1781L11.1064 25.1367C11.7006 28.5021 15.3403 31.4654 18.873 28.5285"/>
    </g>

    <g id="in">
        <path d="M0 0V50H50V0H0ZM12.262 9.82971C14.2424 9.852 16.1932 11.2183 16.2781 13.5834C16.3204 15.6865 14.4876 17.2884 12.2101 17.337H12.1552C10.1945 17.3144 8.27967 15.9139 8.19092 13.5834C8.21888 11.5037 9.96704 9.87904 12.262 9.82971ZM33.5083 19.7663C35.6856 19.7798 37.7405 20.4257 39.4287 22.1467C41.1831 24.1033 41.7464 26.8012 41.8091 29.5441V42.0197H34.6191V30.3925C34.6031 28.2132 33.8566 25.5643 30.9723 25.4761C29.2818 25.4941 28.0898 26.4764 27.2735 28.1189C27.0507 28.6476 27.0186 29.2553 27.008 29.8615V42.0197H19.8212C19.8487 35.9415 19.8865 29.8637 19.873 23.7854C19.873 22.0588 19.8564 20.8963 19.8212 20.2973H27.008V23.3612C27.6181 22.4936 28.2947 21.6708 29.2022 21.0083C30.4333 20.1298 31.912 19.793 33.5083 19.7663ZM8.61513 20.2973H15.802V42.0197H8.61513V20.2973Z"/>
    </g>

    <g id="instagram">
        <path d="M25 0C18.2156 0 17.3625 0.03125 14.6969 0.15C12.0313 0.275 10.2156 0.69375 8.625 1.3125C6.95576 1.93852 5.44419 2.92312 4.19688 4.19688C2.92312 5.44419 1.93852 6.95576 1.3125 8.625C0.69375 10.2125 0.271875 12.0312 0.15 14.6875C0.03125 17.3594 0 18.2094 0 25.0031C0 31.7906 0.03125 32.6406 0.15 35.3063C0.275 37.9688 0.69375 39.7844 1.3125 41.375C1.95312 43.0187 2.80625 44.4125 4.19688 45.8031C5.58438 47.1937 6.97813 48.05 8.62188 48.6875C10.2156 49.3062 12.0281 49.7281 14.6906 49.85C17.3594 49.9687 18.2094 50 25 50C31.7906 50 32.6375 49.9687 35.3063 49.85C37.9656 49.725 39.7875 49.3062 41.3781 48.6875C43.0462 48.0611 44.5567 47.0765 45.8031 45.8031C47.1937 44.4125 48.0469 43.0187 48.6875 41.375C49.3031 39.7844 49.725 37.9688 49.85 35.3063C49.9687 32.6406 50 31.7906 50 25C50 18.2094 49.9687 17.3594 49.85 14.6906C49.725 12.0313 49.3031 10.2125 48.6875 8.625C48.0615 6.95576 47.0769 5.44419 45.8031 4.19688C44.5558 2.92312 43.0442 1.93852 41.375 1.3125C39.7812 0.69375 37.9625 0.271875 35.3031 0.15C32.6344 0.03125 31.7875 0 24.9938 0H25ZM22.7594 4.50625H25.0031C31.6781 4.50625 32.4687 4.52813 35.1031 4.65C37.5406 4.75938 38.8656 5.16875 39.7469 5.50938C40.9125 5.9625 41.7469 6.50625 42.6219 7.38125C43.4969 8.25625 44.0375 9.0875 44.4906 10.2563C44.8344 11.1344 45.2406 12.4594 45.35 14.8969C45.4719 17.5313 45.4969 18.3219 45.4969 24.9938C45.4969 31.6656 45.4719 32.4594 45.35 35.0937C45.2406 37.5312 44.8313 38.8531 44.4906 39.7344C44.087 40.8184 43.4476 41.7993 42.6187 42.6062C41.7437 43.4812 40.9125 44.0219 39.7438 44.475C38.8688 44.8188 37.5437 45.225 35.1031 45.3375C32.4687 45.4563 31.6781 45.4844 25.0031 45.4844C18.3281 45.4844 17.5344 45.4563 14.9 45.3375C12.4625 45.225 11.1406 44.8188 10.2594 44.475C9.17448 44.0727 8.19249 43.4344 7.38437 42.6062C6.55398 41.7988 5.91353 40.8167 5.50938 39.7312C5.16875 38.8531 4.75938 37.5281 4.65 35.0906C4.53125 32.4563 4.50625 31.6656 4.50625 24.9875C4.50625 18.3094 4.53125 17.525 4.65 14.8906C4.7625 12.4531 5.16875 11.1281 5.5125 10.2469C5.96563 9.08125 6.50937 8.24687 7.38437 7.37187C8.25937 6.49687 9.09062 5.95625 10.2594 5.50313C11.1406 5.15938 12.4625 4.75313 14.9 4.64063C17.2063 4.53438 18.1 4.50313 22.7594 4.5V4.50625ZM38.3469 8.65625C37.9529 8.65625 37.5628 8.73385 37.1988 8.88461C36.8348 9.03538 36.5041 9.25635 36.2256 9.53493C35.947 9.81351 35.726 10.1442 35.5752 10.5082C35.4245 10.8722 35.3469 11.2623 35.3469 11.6563C35.3469 12.0502 35.4245 12.4403 35.5752 12.8043C35.726 13.1683 35.947 13.499 36.2256 13.7776C36.5041 14.0561 36.8348 14.2771 37.1988 14.4279C37.5628 14.5787 37.9529 14.6563 38.3469 14.6563C39.1425 14.6563 39.9056 14.3402 40.4682 13.7776C41.0308 13.215 41.3469 12.4519 41.3469 11.6563C41.3469 10.8606 41.0308 10.0975 40.4682 9.53493C39.9056 8.97232 39.1425 8.65625 38.3469 8.65625ZM25.0031 12.1625C23.3002 12.1359 21.609 12.4484 20.0281 13.0817C18.4471 13.715 17.0079 14.6565 15.7942 15.8513C14.5806 17.0462 13.6168 18.4705 12.9589 20.0414C12.301 21.6124 11.9622 23.2985 11.9622 25.0016C11.9622 26.7047 12.301 28.3908 12.9589 29.9617C13.6168 31.5326 14.5806 32.9569 15.7942 34.1518C17.0079 35.3467 18.4471 36.2881 20.0281 36.9214C21.609 37.5547 23.3002 37.8672 25.0031 37.8406C28.3736 37.788 31.5882 36.4122 33.9531 34.0102C36.3179 31.6081 37.6434 28.3724 37.6434 25.0016C37.6434 21.6307 36.3179 18.395 33.9531 15.993C31.5882 13.5909 28.3736 12.2151 25.0031 12.1625ZM25.0031 16.6656C26.0976 16.6656 27.1814 16.8812 28.1926 17.3C29.2037 17.7189 30.1225 18.3328 30.8964 19.1067C31.6703 19.8806 32.2842 20.7994 32.7031 21.8106C33.1219 22.8217 33.3375 23.9055 33.3375 25C33.3375 26.0945 33.1219 27.1783 32.7031 28.1894C32.2842 29.2006 31.6703 30.1194 30.8964 30.8933C30.1225 31.6672 29.2037 32.2811 28.1926 32.7C27.1814 33.1188 26.0976 33.3344 25.0031 33.3344C22.7927 33.3344 20.6728 32.4563 19.1098 30.8933C17.5468 29.3303 16.6688 27.2104 16.6688 25C16.6688 22.7896 17.5468 20.6697 19.1098 19.1067C20.6728 17.5437 22.7927 16.6656 25.0031 16.6656Z"/>
    </g>

    <g id="tg">
        <path d="M25 0.78125C11.6203 0.78125 0.78125 11.6219 0.78125 25C0.78125 38.3781 11.6219 49.2188 25 49.2188C38.3781 49.2188 49.2188 38.3781 49.2188 25C49.2188 11.6219 38.3781 0.78125 25 0.78125ZM36.8953 17.3734L32.9203 36.1047C32.6266 37.4328 31.8359 37.7547 30.7328 37.1297L24.6781 32.6672L21.7578 35.4797C21.4359 35.8016 21.1625 36.075 20.5375 36.075L20.9672 29.9125L32.1875 19.775C32.6766 19.3453 32.0797 19.1016 31.4344 19.5312L17.5672 28.2609L11.5906 26.3953C10.2922 25.9859 10.2625 25.0969 11.8641 24.4719L35.2141 15.4672C36.2984 15.0766 37.2453 15.7313 36.8937 17.3719L36.8953 17.3734Z"></path>
    </g>

        <g id="githubwhite">
        <path d="M38.2812 0H11.7188C5.24666 0 0 5.24666 0 11.7188V38.2812C0 44.7533 5.24666 50 11.7188 50H38.2812C44.7533 50 50 44.7533 50 38.2812V11.7188C50 5.24666 44.7533 0 38.2812 0Z"/>
        <path d="M25.0002 5.85938C14.2146 5.85938 5.46875 14.6035 5.46875 25.3908C5.46875 34.0203 11.065 41.3414 18.8256 43.924C19.8016 44.1049 20.16 43.5004 20.16 42.9846C20.16 42.5187 20.1418 40.9803 20.1334 39.3482C14.6998 40.5297 13.5533 37.0438 13.5533 37.0438C12.6646 34.7861 11.3846 34.1859 11.3846 34.1859C9.6125 32.9736 11.5182 32.9986 11.5182 32.9986C13.4795 33.1363 14.5123 35.0113 14.5123 35.0113C16.2543 37.9973 19.0814 37.134 20.1959 36.635C20.3713 35.3725 20.8773 34.5109 21.4359 34.0232C17.0979 33.5293 12.5375 31.8545 12.5375 24.3707C12.5375 22.2383 13.3004 20.4959 14.5498 19.1281C14.3469 18.6361 13.6783 16.6496 14.7389 13.9594C14.7389 13.9594 16.3791 13.4346 20.1115 15.9613C21.6695 15.5287 23.3402 15.3117 25.0002 15.3043C26.66 15.3117 28.3322 15.5287 29.893 15.9615C33.6209 13.4344 35.2588 13.9596 35.2588 13.9596C36.3219 16.6496 35.6531 18.6363 35.4502 19.1281C36.7025 20.4959 37.4604 22.2383 37.4604 24.3707C37.4604 31.8725 32.8912 33.5242 28.542 34.0076C29.2426 34.6139 29.8668 35.8023 29.8668 37.6246C29.8668 40.2379 29.8441 42.3412 29.8441 42.9846C29.8441 43.5043 30.1957 44.1133 31.1857 43.9215C38.942 41.3359 44.5312 34.0174 44.5312 25.3908C44.5312 14.6037 35.7865 5.85938 25.0002 5.85938ZM12.784 33.6822C12.741 33.7793 12.5883 33.8084 12.4492 33.7418C12.3074 33.6781 12.2279 33.5457 12.2738 33.4484C12.3158 33.3484 12.4689 33.3207 12.6102 33.3877C12.7521 33.4514 12.833 33.585 12.784 33.6822ZM13.7447 34.5395C13.6516 34.626 13.4693 34.5857 13.3459 34.4492C13.2182 34.3131 13.1941 34.1311 13.2887 34.0434C13.3846 33.957 13.5613 33.9975 13.6893 34.1336C13.817 34.2715 13.842 34.4521 13.7447 34.5395ZM14.4037 35.6363C14.284 35.7195 14.0883 35.6416 13.9674 35.4678C13.8477 35.2941 13.8477 35.0859 13.9699 35.0023C14.0912 34.9189 14.284 34.9939 14.4066 35.1664C14.526 35.343 14.526 35.5514 14.4037 35.6363ZM15.5184 36.9066C15.4113 37.0246 15.1834 36.993 15.0164 36.8318C14.8457 36.6744 14.798 36.451 14.9055 36.3328C15.0139 36.2145 15.2432 36.2479 15.4113 36.4076C15.5809 36.5646 15.6326 36.7898 15.5184 36.9066ZM16.959 37.3354C16.9117 37.4885 16.6922 37.558 16.4709 37.493C16.2502 37.426 16.1055 37.2469 16.1502 37.0922C16.1961 36.9383 16.4166 36.8658 16.6395 36.9354C16.8602 37.002 17.0049 37.1799 16.959 37.3354ZM18.5984 37.5174C18.6039 37.6783 18.4164 37.8119 18.1842 37.8148C17.9506 37.8201 17.7617 37.6896 17.7592 37.5313C17.7592 37.3686 17.9426 37.2363 18.176 37.2324C18.4084 37.2279 18.5984 37.3572 18.5984 37.5174ZM20.209 37.4557C20.2369 37.6127 20.0756 37.7742 19.8449 37.8172C19.6182 37.8586 19.4082 37.7615 19.3795 37.6057C19.3514 37.4445 19.5156 37.2832 19.742 37.2414C19.973 37.2014 20.1797 37.2959 20.209 37.4557Z" fill="white"/>
    </g>

    <g id="btn">
        <path fill-rule="evenodd" clip-rule="evenodd" d="M5.79368 4.85072C5.9743 5.03134 5.9743 5.32413 5.79368 5.50474L1.0784 10.22C0.897785 10.4006 0.604995 10.4006 0.424376 10.22L0.206326 10.002C0.025707 9.82137 0.025707 9.52854 0.206326 9.34792L4.37654 5.17773L0.206326 1.00752C0.0257066 0.8269 0.0257066 0.53411 0.206326 0.353492L0.424376 0.135442C0.604995 -0.0451775 0.897784 -0.0451775 1.0784 0.135442L5.79368 4.85072Z"/>
    </g>
</svg>
